<svg width="299" height="298" viewBox="0 0 299 298" fill="none" xmlns="http://www.w3.org/2000/svg">
<path d="M136.784 24.8333V50.5358C114.931 53.3071 94.6184 63.2641 79.0418 78.8407C63.4653 94.4172 53.5083 114.73 50.737 136.583H25.0345V161.417H50.737C53.5083 183.27 63.4653 203.583 79.0418 219.159C94.6184 234.736 114.931 244.693 136.784 247.464V273.167H161.618V247.464C183.471 244.693 203.784 234.736 219.36 219.159C234.937 203.583 244.894 183.27 247.665 161.417H273.368V136.583H247.665C244.894 114.73 234.937 94.4172 219.36 78.8407C203.784 63.2641 183.471 53.3071 161.618 50.5358V24.8333M136.784 75.4933V99.3333H161.618V75.6175C192.659 80.7083 217.493 105.542 222.708 136.583H198.868V161.417H222.584C217.493 192.458 192.659 217.292 161.618 222.507V198.667H136.784V222.382C105.743 217.292 80.9095 192.458 75.6945 161.417H99.5345V136.583H75.8187C80.9095 105.542 105.743 80.7083 136.784 75.4933ZM149.201 136.583C145.908 136.583 142.75 137.891 140.421 140.22C138.093 142.549 136.784 145.707 136.784 149C136.784 152.293 138.093 155.451 140.421 157.78C142.75 160.108 145.908 161.417 149.201 161.417C152.494 161.417 155.652 160.108 157.981 157.78C160.31 155.451 161.618 152.293 161.618 149C161.618 145.707 160.31 142.549 157.981 140.22C155.652 137.891 152.494 136.583 149.201 136.583Z" fill="black"/>
</svg>
